<?xml version="1.0" encoding="UTF-8"?>
<svg xmlns="http://www.w3.org/2000/svg" viewBox="0 0 420 297" width="420mm" height="297mm">
  <defs>
    <marker id="arrow-start" markerWidth="3" markerHeight="2" refX="0" refY="1" orient="auto">
      <polygon points="3,0 0,1 3,2" fill="black"/>
    </marker>
    <marker id="arrow-end" markerWidth="3" markerHeight="2" refX="3" refY="1" orient="auto">
      <polygon points="0,0 3,1 0,2" fill="black"/>
    </marker>
    <style>
      .outline { stroke: black; stroke-width: 0.5; fill: none; }
      .thin { stroke: black; stroke-width: 0.25; fill: none; }
      .hidden { stroke: black; stroke-width: 0.25; fill: none; stroke-dasharray: 2,1; }
      .center { stroke: black; stroke-width: 0.18; fill: none; stroke-dasharray: 6,1,1,1; }
      .phantom { stroke: black; stroke-width: 0.18; fill: none; stroke-dasharray: 6,1,1,1,1,1; }
      .dim-line { stroke: black; stroke-width: 0.18; fill: none; marker-start: url(#arrow-start); marker-end: url(#arrow-end); }
      .ext-line { stroke: black; stroke-width: 0.13; fill: none; }
      .cutting { stroke: black; stroke-width: 0.35; fill: none; stroke-dasharray: 8,2,1,2; }
      .hatch { stroke: black; stroke-width: 0.13; fill: none; }
      .frame { stroke: black; stroke-width: 0.7; fill: none; }
      .frame-inner { stroke: black; stroke-width: 0.35; fill: none; }
      .title-box { stroke: black; stroke-width: 0.35; fill: none; }
      .text-dim { font-family: Arial, sans-serif; font-size: 3px; text-anchor: middle; }
      .text-note { font-family: Arial, sans-serif; font-size: 2.5px; text-anchor: start; }
      .text-title { font-family: Arial, sans-serif; font-size: 3.5px; text-anchor: start; font-weight: bold; }
      .text-title-sm { font-family: Arial, sans-serif; font-size: 2.5px; text-anchor: start; }
      .text-zone { font-family: Arial, sans-serif; font-size: 3px; text-anchor: middle; }
      .text-label { font-family: Arial, sans-serif; font-size: 2px; text-anchor: middle; }
      .zone-fill-a { fill: #f0f8ff; stroke: none; opacity: 0.3; }
      .zone-fill-b { fill: #f0fff0; stroke: none; opacity: 0.3; }
      .zone-fill-c { fill: #fff0f0; stroke: none; opacity: 0.3; }
    </style>
  </defs>

  <!-- Drawing frame -->
  <rect x="5" y="5" width="410" height="287" class="frame"/>
  <rect x="15" y="15" width="390" height="267" class="frame-inner"/>

  <!-- Center marks -->
  <line x1="210" y1="5" x2="210" y2="10" class="frame"/>
  <line x1="210" y1="287" x2="210" y2="292" class="frame"/>
  <line x1="5" y1="148.5" x2="10" y2="148.5" class="frame"/>
  <line x1="410" y1="148.5" x2="415" y2="148.5" class="frame"/>

  <!-- Zone labels -->
  <text x="112" y="12" class="text-zone">A</text>
  <text x="308" y="12" class="text-zone">B</text>
  <text x="112" y="295" class="text-zone">A</text>
  <text x="308" y="295" class="text-zone">B</text>
  <text x="8" y="80" class="text-zone" transform="rotate(-90,8,80)">1</text>
  <text x="8" y="220" class="text-zone" transform="rotate(-90,8,220)">2</text>

  <!-- ============================================ -->
  <!-- FRONT VIEW (top-left) - Assembly, Y=0 face -->
  <!-- Total H=160 (body 142 + fin 18), W=300 at 1:2 -->
  <!-- 300->150px, 160->80px -->
  <!-- Position: x=30, y=25 -->
  <!-- ============================================ -->
  <g id="front-view" transform="translate(30, 128)">
    <text x="75" y="-3" class="text-note" text-anchor="middle" font-weight="bold">正面図 (Y=0) - 総組立</text>

    <!-- Enclosure body outline -->
    <rect x="0" y="9" width="150" height="71" class="outline"/>

    <!-- Top plate (Z=139 to Z=142) -> y=0.5 to y=9 relative from fin top -->
    <!-- At 1:2: plate is at y=9 to y=10.5 (1.5px thick) -->
    <line x1="0" y1="9" x2="150" y2="9" class="outline"/>
    <line x1="0" y1="10.5" x2="150" y2="10.5" class="thin"/>

    <!-- Fins on top (18mm -> 9px) -->
    <g class="thin" stroke-width="0.3">
      <!-- Representative fins -->
      <!-- 43 fins at 2.5px pitch (5mm at 1:2), X=20-230 → px 10-115 -->
      <rect x="10" y="0" width="1" height="9"/>
      <rect x="12.5" y="0" width="1" height="9"/>
      <rect x="15" y="0" width="1" height="9"/>
      <rect x="17.5" y="0" width="1" height="9"/>
      <rect x="20" y="0" width="1" height="9"/>
      <rect x="22.5" y="0" width="1" height="9"/>
      <rect x="25" y="0" width="1" height="9"/>
      <rect x="27.5" y="0" width="1" height="9"/>
      <rect x="30" y="0" width="1" height="9"/>
      <rect x="32.5" y="0" width="1" height="9"/>
      <rect x="35" y="0" width="1" height="9"/>
      <rect x="37.5" y="0" width="1" height="9"/>
      <rect x="40" y="0" width="1" height="9"/>
      <rect x="42.5" y="0" width="1" height="9"/>
      <!-- break -->
      <text x="50" y="5" class="text-dim" font-size="2px">...</text>
      <rect x="57.5" y="0" width="1" height="9"/>
      <rect x="60" y="0" width="1" height="9"/>
      <rect x="62.5" y="0" width="1" height="9"/>
      <rect x="65" y="0" width="1" height="9"/>
      <rect x="67.5" y="0" width="1" height="9"/>
      <rect x="70" y="0" width="1" height="9"/>
      <rect x="72.5" y="0" width="1" height="9"/>
      <rect x="75" y="0" width="1" height="9"/>
      <rect x="77.5" y="0" width="1" height="9"/>
      <rect x="80" y="0" width="1" height="9"/>
      <rect x="82.5" y="0" width="1" height="9"/>
      <rect x="85" y="0" width="1" height="9"/>
      <rect x="87.5" y="0" width="1" height="9"/>
      <rect x="90" y="0" width="1" height="9"/>
      <!-- break -->
      <text x="97" y="5" class="text-dim" font-size="2px">...</text>
      <rect x="100" y="0" width="1" height="9"/>
      <rect x="102.5" y="0" width="1" height="9"/>
      <rect x="105" y="0" width="1" height="9"/>
      <rect x="107.5" y="0" width="1" height="9"/>
      <rect x="110" y="0" width="1" height="9"/>
      <rect x="112.5" y="0" width="1" height="9"/>
    </g>

    <!-- Internal zone divisions (hidden lines) -->
    <!-- PTFE at Z=90 -> from top: 80-45=35px from top of body = 9+((142-90)/2)=9+26=35 -->
    <!-- Z=90 from bottom, at 1:2: 45px from bottom -> y = 9+71-45 = 35 -->
    <line x1="1.5" y1="35" x2="148.5" y2="35" class="phantom"/>
    <text x="152" y="35.5" class="text-note" font-size="1.8px">PTFE Z=90</text>

    <!-- Zone labels inside -->
    <text x="35" y="55" class="text-label" font-size="2.5px">Zone A</text>
    <text x="35" y="58" class="text-label" font-size="2px">Optics</text>
    <text x="75" y="55" class="text-label" font-size="2.5px">Zone B</text>
    <text x="75" y="58" class="text-label" font-size="2px">Fiber</text>
    <text x="115" y="55" class="text-label" font-size="2.5px">Zone C</text>
    <text x="115" y="58" class="text-label" font-size="2px">Electronics</text>

    <!-- Zone vertical divisions (dashed) -->
    <!-- X=135->67.5, X=210->105 at 1:2 -->
    <line x1="67.5" y1="10.5" x2="67.5" y2="78.5" class="phantom"/>
    <line x1="105" y1="10.5" x2="105" y2="78.5" class="phantom"/>

    <!-- HP (heat pipes) shown as hidden circles through top plate -->
    <circle cx="115" cy="25" r="1.5" class="hidden"/>
    <circle cx="125" cy="25" r="1.5" class="hidden"/>
    <circle cx="115" cy="25" r="1.5" class="hidden"/>

    <!-- Bottom: rubber feet -->
    <rect x="8" y="80" width="4" height="2.5" class="outline" stroke-width="0.3" rx="1"/>
    <rect x="138" y="80" width="4" height="2.5" class="outline" stroke-width="0.3" rx="1"/>

    <!-- Side slits (on right side) -->
    <g class="thin" stroke-width="0.15">
      <!-- Z=30-118 -> y positions from top: 9+(142-118)/2=9+12=21 to 9+(142-30)/2=9+56=65 -->
      <line x1="150" y1="21" x2="150" y2="21.5" class="outline" stroke-width="0.25"/>
      <line x1="150" y1="25" x2="150" y2="25.5" class="outline" stroke-width="0.25"/>
      <line x1="150" y1="29" x2="150" y2="29.5" class="outline" stroke-width="0.25"/>
      <line x1="150" y1="33" x2="150" y2="33.5" class="outline" stroke-width="0.25"/>
      <line x1="150" y1="37" x2="150" y2="37.5" class="outline" stroke-width="0.25"/>
      <line x1="150" y1="41" x2="150" y2="41.5" class="outline" stroke-width="0.25"/>
      <line x1="150" y1="45" x2="150" y2="45.5" class="outline" stroke-width="0.25"/>
      <line x1="150" y1="49" x2="150" y2="49.5" class="outline" stroke-width="0.25"/>
      <line x1="150" y1="53" x2="150" y2="53.5" class="outline" stroke-width="0.25"/>
      <line x1="150" y1="57" x2="150" y2="57.5" class="outline" stroke-width="0.25"/>
      <line x1="150" y1="61" x2="150" y2="61.5" class="outline" stroke-width="0.25"/>
      <line x1="150" y1="65" x2="150" y2="65.5" class="outline" stroke-width="0.25"/>
    </g>

    <!-- Dimensions -->
    <!-- Total height 160 -->
    <line x1="160" y1="0" x2="163" y2="0" class="ext-line"/>
    <line x1="160" y1="80" x2="163" y2="80" class="ext-line"/>
    <line x1="162" y1="0" x2="162" y2="80" class="dim-line"/>
    <text x="166" y="40" class="text-dim" transform="rotate(-90,166,40)">160</text>

    <!-- Width 300 -->
    <line x1="0" y1="86" x2="0" y2="84" class="ext-line"/>
    <line x1="150" y1="86" x2="150" y2="84" class="ext-line"/>
    <line x1="0" y1="85" x2="150" y2="85" class="dim-line"/>
    <text x="75" y="84" class="text-dim">300</text>

    <!-- Body height 142 -->
    <line x1="155" y1="9" x2="158" y2="9" class="ext-line"/>
    <line x1="155" y1="80" x2="158" y2="80" class="ext-line"/>
    <line x1="157" y1="9" x2="157" y2="80" class="dim-line"/>
    <text x="159" y="44" class="text-dim" font-size="2px" text-anchor="start">142</text>

    <!-- Fin height 18 -->
    <line x1="155" y1="0" x2="158" y2="0" class="ext-line"/>
    <line x1="155" y1="9" x2="158" y2="9" class="ext-line"/>
    <line x1="157" y1="0" x2="157" y2="9" class="dim-line"/>
    <text x="159" y="5" class="text-dim" font-size="2px" text-anchor="start">18</text>
  </g>

  <!-- ============================================ -->
  <!-- RIGHT SIDE VIEW (top-right) -->
  <!-- D=250->125px, H=160->80px at 1:2 -->
  <!-- Position: x=220, y=25 -->
  <!-- ============================================ -->
  <g id="right-side-view" transform="translate(225, 128)">
    <text x="62.5" y="-3" class="text-note" text-anchor="middle" font-weight="bold">右側面図 (X=300)</text>

    <!-- Body outline -->
    <rect x="0" y="9" width="125" height="71" class="outline"/>

    <!-- Fins on top -->
    <line x1="10" y1="0" x2="10" y2="9" class="thin"/>
    <line x1="112.5" y1="0" x2="112.5" y2="9" class="thin"/>
    <rect x="10" y="0" width="102.5" height="9" class="outline" stroke-width="0.3"/>

    <!-- Slits: Z=30-118, Y=25-225 at 1:2 -->
    <g class="thin" stroke-width="0.2">
      <line x1="12.5" y1="21" x2="112.5" y2="21"/>
      <line x1="12.5" y1="25" x2="112.5" y2="25"/>
      <line x1="12.5" y1="29" x2="112.5" y2="29"/>
      <line x1="12.5" y1="33" x2="112.5" y2="33"/>
      <line x1="12.5" y1="37" x2="112.5" y2="37"/>
      <line x1="12.5" y1="41" x2="112.5" y2="41"/>
      <line x1="12.5" y1="45" x2="112.5" y2="45"/>
      <line x1="12.5" y1="49" x2="112.5" y2="49"/>
      <line x1="12.5" y1="53" x2="112.5" y2="53"/>
      <line x1="12.5" y1="57" x2="112.5" y2="57"/>
      <line x1="12.5" y1="61" x2="112.5" y2="61"/>
      <line x1="12.5" y1="65" x2="112.5" y2="65"/>
    </g>

    <!-- Rubber feet -->
    <rect x="8" y="80" width="4" height="2.5" class="outline" stroke-width="0.3" rx="1"/>
    <rect x="113" y="80" width="4" height="2.5" class="outline" stroke-width="0.3" rx="1"/>

    <!-- Center line -->
    <line x1="62.5" y1="-3" x2="62.5" y2="85" class="center"/>

    <!-- Dimension: Depth 250 -->
    <line x1="0" y1="86" x2="0" y2="84" class="ext-line"/>
    <line x1="125" y1="86" x2="125" y2="84" class="ext-line"/>
    <line x1="0" y1="85" x2="125" y2="85" class="dim-line"/>
    <text x="62.5" y="84" class="text-dim">250</text>

    <!-- Dimension: Height 160 -->
    <line x1="132" y1="0" x2="135" y2="0" class="ext-line"/>
    <line x1="132" y1="80" x2="135" y2="80" class="ext-line"/>
    <line x1="134" y1="0" x2="134" y2="80" class="dim-line"/>
    <text x="138" y="40" class="text-dim" transform="rotate(-90,138,40)">160</text>
  </g>

  <!-- ============================================ -->
  <!-- PLAN VIEW (bottom-left) - Top view with Zone layout -->
  <!-- W=300->150px, D=250->125px at 1:2 -->
  <!-- Position: x=30, y=125 -->
  <!-- ============================================ -->
  <g id="plan-view" transform="translate(30, 25)">
    <text x="75" y="-3" class="text-note" text-anchor="middle" font-weight="bold">平面図 (Zone配置)</text>

    <!-- Outer boundary (enclosure) -->
    <rect x="0" y="0" width="150" height="125" class="outline"/>

    <!-- Zone backgrounds -->
    <rect x="2.5" y="2.5" width="65" height="120" class="zone-fill-a"/>
    <rect x="67.5" y="2.5" width="37.5" height="120" class="zone-fill-b"/>
    <rect x="105" y="2.5" width="42" height="120" class="zone-fill-c"/>

    <!-- Zone boundary lines -->
    <line x1="67.5" y1="2.5" x2="67.5" y2="122.5" class="phantom"/>
    <line x1="105" y1="2.5" x2="105" y2="122.5" class="phantom"/>

    <!-- Zone A contents -->
    <!-- OPA x2: 50x20mm -> 25x10px at (30,40) and (30,80) approx -->
    <rect x="10" y="30" width="25" height="10" class="thin"/>
    <text x="22.5" y="36" class="text-label">OPA#1</text>
    <rect x="10" y="55" width="25" height="10" class="thin"/>
    <text x="22.5" y="61" class="text-label">OPA#2</text>
    <!-- Laser -->
    <rect x="10" y="80" width="30" height="15" class="thin"/>
    <text x="25" y="89" class="text-label">Laser</text>
    <!-- EOM -->
    <rect x="42" y="35" width="20" height="5" class="thin"/>
    <text x="52" y="39" class="text-label">EOM</text>
    <rect x="42" y="55" width="20" height="5" class="thin"/>
    <text x="52" y="59" class="text-label">EOM</text>
    <!-- BS/BPD -->
    <rect x="42" y="75" width="15" height="10" class="thin"/>
    <text x="49.5" y="81" class="text-label">BS/BPD</text>

    <!-- Zone B contents -->
    <!-- PMF spool phi80->40px diameter -->
    <circle cx="86" cy="62.5" r="20" class="thin"/>
    <text x="86" y="63" class="text-label">PMF 102m</text>
    <text x="86" y="66" class="text-label">spool</text>
    <!-- AWG -->
    <rect x="72" y="95" width="25" height="8.75" class="thin"/>
    <text x="84.5" y="101" class="text-label">AWG 8ch</text>

    <!-- Zone C contents -->
    <!-- FPGA -->
    <rect x="108" y="20" width="20" height="20" class="thin"/>
    <text x="118" y="31" class="text-label">FPGA</text>
    <text x="118" y="34" class="text-label">VE2302</text>
    <!-- DC-DC -->
    <rect x="108" y="50" width="20" height="12" class="thin"/>
    <text x="118" y="57" class="text-label">DC-DC</text>
    <!-- ADC/DAC -->
    <rect x="130" y="20" width="15" height="20" class="thin"/>
    <text x="137.5" y="31" class="text-label">ADC</text>
    <text x="137.5" y="34" class="text-label">DAC</text>
    <!-- PZT -->
    <rect x="108" y="75" width="20" height="10" class="thin"/>
    <text x="118" y="81" class="text-label">PZT drv</text>

    <!-- Zone labels -->
    <text x="33" y="10" class="text-dim" font-size="3px" font-weight="bold">Zone A</text>
    <text x="86" y="10" class="text-dim" font-size="3px" font-weight="bold">Zone B</text>
    <text x="126" y="10" class="text-dim" font-size="3px" font-weight="bold">Zone C</text>

    <!-- Zone X ranges -->
    <text x="33" y="120" class="text-label">X=5-135</text>
    <text x="86" y="120" class="text-label">X=135-210</text>
    <text x="126" y="120" class="text-label">X=210-294</text>

    <!-- Center lines -->
    <line x1="75" y1="-3" x2="75" y2="128" class="center"/>
    <line x1="-3" y1="62.5" x2="153" y2="62.5" class="center"/>

    <!-- Dimension: Width 300 -->
    <line x1="0" y1="132" x2="0" y2="129" class="ext-line"/>
    <line x1="150" y1="132" x2="150" y2="129" class="ext-line"/>
    <line x1="0" y1="131" x2="150" y2="131" class="dim-line"/>
    <text x="75" y="130" class="text-dim">300</text>

    <!-- Dimension: Depth 250 -->
    <line x1="157" y1="0" x2="160" y2="0" class="ext-line"/>
    <line x1="157" y1="125" x2="160" y2="125" class="ext-line"/>
    <line x1="159" y1="0" x2="159" y2="125" class="dim-line"/>
    <text x="163" y="62.5" class="text-dim" transform="rotate(-90,163,62.5)">250</text>
  </g>

  <!-- ============================================ -->
  <!-- TITLE BLOCK + BOM (bottom-right) -->
  <!-- ============================================ -->
  <g id="title-block" transform="translate(270, 200)">
    <!-- Simplified BOM table -->
    <text x="0" y="-5" class="text-note" font-weight="bold">BOM (主要部品)</text>
    <rect x="0" y="0" width="125" height="50" class="title-box"/>
    <!-- Header -->
    <line x1="0" y1="6" x2="125" y2="6" class="title-box"/>
    <!-- Columns -->
    <line x1="10" y1="0" x2="10" y2="50" class="title-box" stroke-width="0.18"/>
    <line x1="55" y1="0" x2="55" y2="50" class="title-box" stroke-width="0.18"/>
    <line x1="90" y1="0" x2="90" y2="50" class="title-box" stroke-width="0.18"/>
    <line x1="110" y1="0" x2="110" y2="50" class="title-box" stroke-width="0.18"/>

    <!-- Header text -->
    <text x="5" y="4.5" class="text-label">#</text>
    <text x="32" y="4.5" class="text-label">Part</text>
    <text x="72" y="4.5" class="text-label">Material</text>
    <text x="100" y="4.5" class="text-label">Qty</text>
    <text x="117" y="4.5" class="text-label">DWG</text>

    <!-- Row lines -->
    <line x1="0" y1="10" x2="125" y2="10" class="title-box" stroke-width="0.13"/>
    <line x1="0" y1="14" x2="125" y2="14" class="title-box" stroke-width="0.13"/>
    <line x1="0" y1="18" x2="125" y2="18" class="title-box" stroke-width="0.13"/>
    <line x1="0" y1="22" x2="125" y2="22" class="title-box" stroke-width="0.13"/>
    <line x1="0" y1="26" x2="125" y2="26" class="title-box" stroke-width="0.13"/>
    <line x1="0" y1="30" x2="125" y2="30" class="title-box" stroke-width="0.13"/>
    <line x1="0" y1="34" x2="125" y2="34" class="title-box" stroke-width="0.13"/>
    <line x1="0" y1="38" x2="125" y2="38" class="title-box" stroke-width="0.13"/>
    <line x1="0" y1="42" x2="125" y2="42" class="title-box" stroke-width="0.13"/>
    <line x1="0" y1="46" x2="125" y2="46" class="title-box" stroke-width="0.13"/>

    <!-- BOM data -->
    <text x="5" y="9" class="text-label">1</text>
    <text x="32" y="9" class="text-label">Enclosure body</text>
    <text x="72" y="9" class="text-label">A6063-T5</text>
    <text x="100" y="9" class="text-label">1</text>
    <text x="117" y="9" class="text-label">001</text>

    <text x="5" y="13" class="text-label">2</text>
    <text x="32" y="13" class="text-label">Top plate (fin)</text>
    <text x="72" y="13" class="text-label">A6063-T5</text>
    <text x="100" y="13" class="text-label">1</text>
    <text x="117" y="13" class="text-label">002</text>

    <text x="5" y="17" class="text-label">3</text>
    <text x="32" y="17" class="text-label">Master Laser 1550nm</text>
    <text x="72" y="17" class="text-label">NKT E15</text>
    <text x="100" y="17" class="text-label">1</text>
    <text x="117" y="17" class="text-label">--</text>

    <text x="5" y="21" class="text-label">5</text>
    <text x="32" y="21" class="text-label">PPLN OPA</text>
    <text x="72" y="21" class="text-label">NTT/HC</text>
    <text x="100" y="21" class="text-label">2</text>
    <text x="117" y="21" class="text-label">--</text>

    <text x="5" y="25" class="text-label">6</text>
    <text x="32" y="25" class="text-label">Peltier TEC</text>
    <text x="72" y="25" class="text-label">60x50x5</text>
    <text x="100" y="25" class="text-label">2</text>
    <text x="117" y="25" class="text-label">--</text>

    <text x="5" y="29" class="text-label">10</text>
    <text x="32" y="29" class="text-label">PMF 102m spool</text>
    <text x="72" y="29" class="text-label">Corning</text>
    <text x="100" y="29" class="text-label">1</text>
    <text x="117" y="29" class="text-label">--</text>

    <text x="5" y="33" class="text-label">13</text>
    <text x="32" y="33" class="text-label">FPGA Versal VE2302</text>
    <text x="72" y="33" class="text-label">AMD</text>
    <text x="100" y="33" class="text-label">1</text>
    <text x="117" y="33" class="text-label">--</text>

    <text x="5" y="37" class="text-label">18</text>
    <text x="32" y="37" class="text-label">Cu Heat Pipe phi6</text>
    <text x="72" y="37" class="text-label">Cu sintered</text>
    <text x="100" y="37" class="text-label">3</text>
    <text x="117" y="37" class="text-label">--</text>

    <text x="5" y="41" class="text-label">19</text>
    <text x="32" y="41" class="text-label">PTFE insulation</text>
    <text x="72" y="41" class="text-label">PTFE 3mm</text>
    <text x="100" y="41" class="text-label">1</text>
    <text x="117" y="41" class="text-label">--</text>

    <text x="5" y="45" class="text-label">22</text>
    <text x="32" y="45" class="text-label">Fan NF-A8</text>
    <text x="72" y="45" class="text-label">Noctua</text>
    <text x="100" y="45" class="text-label">1</text>
    <text x="117" y="45" class="text-label">--</text>

    <text x="5" y="49" class="text-label"></text>
    <text x="32" y="49" class="text-label">... (44 items total)</text>
  </g>

  <!-- Main title block -->
  <g id="main-title" transform="translate(295, 255)">
    <!-- Revision block -->
    <rect x="0" y="-12" width="100" height="12" class="title-box"/>
    <line x1="0" y1="-6" x2="100" y2="-6" class="title-box"/>
    <line x1="15" y1="-12" x2="15" y2="0" class="title-box"/>
    <line x1="35" y1="-12" x2="35" y2="0" class="title-box"/>
    <line x1="75" y1="-12" x2="75" y2="0" class="title-box"/>
    <text x="7.5" y="-8.5" class="text-dim" font-size="2px">Rev</text>
    <text x="25" y="-8.5" class="text-dim" font-size="2px">Date</text>
    <text x="55" y="-8.5" class="text-dim" font-size="2px">Description</text>
    <text x="87" y="-8.5" class="text-dim" font-size="2px">Appr.</text>
    <text x="7.5" y="-2.5" class="text-dim" font-size="2px">D</text>
    <text x="25" y="-2.5" class="text-dim" font-size="2px">2026-05-06</text>
    <text x="55" y="-2.5" class="text-dim" font-size="2px">R10: PTFE HP holes, step reorder</text>
    <text x="87" y="-2.5" class="text-dim" font-size="2px">--</text>

    <!-- Main block -->
    <rect x="0" y="0" width="100" height="24" class="title-box"/>
    <line x1="0" y1="6" x2="100" y2="6" class="title-box"/>
    <line x1="0" y1="12" x2="100" y2="12" class="title-box"/>
    <line x1="0" y1="18" x2="100" y2="18" class="title-box"/>
    <line x1="30" y1="0" x2="30" y2="18" class="title-box"/>
    <line x1="60" y1="12" x2="60" y2="18" class="title-box"/>

    <text x="2" y="4.5" class="text-title-sm">DWG No.</text>
    <text x="32" y="4.5" class="text-title">DWG-003 Rev.D</text>
    <text x="2" y="10.5" class="text-title-sm">Title</text>
    <text x="32" y="10.5" class="text-title">Taros Pro General Assembly</text>
    <text x="2" y="16.5" class="text-title-sm">Scale</text>
    <text x="32" y="16.5" class="text-title-sm">1:2 (A3)</text>
    <text x="62" y="16.5" class="text-title-sm">3rd Angle</text>
    <text x="2" y="22.5" class="text-title-sm">Total mass: 7.5 kg | Power: 109W | 44 items</text>

    <!-- Third angle projection symbol -->
    <g transform="translate(85, 13)">
      <circle cx="0" cy="0" r="2" class="outline" stroke-width="0.2"/>
      <circle cx="0" cy="0" r="0.5" class="outline" stroke-width="0.2" fill="black"/>
      <line x1="3" y1="-2" x2="3" y2="2" class="outline" stroke-width="0.2"/>
      <line x1="3" y1="-2" x2="5" y2="-1" class="outline" stroke-width="0.2"/>
      <line x1="3" y1="2" x2="5" y2="1" class="outline" stroke-width="0.2"/>
      <line x1="5" y1="-1" x2="5" y2="1" class="outline" stroke-width="0.2"/>
    </g>
  </g>

  <!-- Notes area (left of title block) -->
  <g transform="translate(220, 130)">
    <text x="0" y="0" class="text-note" font-size="2.5px" font-weight="bold">Notes:</text>
    <text x="0" y="5" class="text-note" font-size="2px">1. General tol: JIS B 0405 m (assembly)</text>
    <text x="0" y="8.5" class="text-note" font-size="2px">2. Optical assembly in cleanroom Class 1000+</text>
    <text x="0" y="12" class="text-note" font-size="2px">3. Fiber bend radius R &gt;= 15mm all points</text>
    <text x="0" y="15.5" class="text-note" font-size="2px">4. TIM grease 50-100um at TEC/HP interfaces</text>
    <text x="0" y="19" class="text-note" font-size="2px">5. ESD protection for FPGA/ADC/DAC install</text>
    <text x="0" y="22.5" class="text-note" font-size="2px">6. Top plate: M3x8 CSK, diagonal tightening</text>
    <text x="0" y="26" class="text-note" font-size="2px">7. Conductive gasket before top plate close</text>
    <text x="0" y="29.5" class="text-note" font-size="2px">8. Verify all fiber IL &lt;= 0.3dB/point</text>
    <text x="0" y="33" class="text-note" font-size="2px">9. Total assembly time: ~7h (manned)</text>
    <text x="0" y="36.5" class="text-note" font-size="2px">10. Go/No-Go: sigma_gen &gt;= 12.5dB (Phase -1)</text>
  </g>

  <!-- Datum indicators -->
  <g transform="translate(30, 115)">
    <text x="0" y="0" class="text-note" font-size="2px">Datum A: Bottom (Z=0) | B: Left (X=0) | C: Front (Y=0)</text>
  </g>
</svg>
